<svg width="59" height="59" viewBox="0 0 59 59" fill="none" xmlns="http://www.w3.org/2000/svg">
<path d="M36.0926 29.4974C36.0926 33.5716 33.4857 37.6535 28.7169 37.6535C23.9507 37.6535 21.0837 33.5716 21.0837 29.4974C21.0837 25.4258 23.9507 21.3439 28.7169 21.3439C33.4857 21.3439 36.0926 25.4258 36.0926 29.4974ZM58.9974 21.4378V59H29.5H21.4378C11.255 58.9974 0 47.7424 0 37.5622V0H29.5H37.5622C47.7424 0 58.9974 11.255 58.9974 21.4378ZM43.7284 14.7487C41.314 14.7487 39.1729 15.9064 37.8278 17.6964C35.3615 15.8466 32.2968 14.7487 28.9771 14.7487C20.8313 14.7487 14.2284 21.3517 14.2284 29.4974C14.2284 37.6431 20.8313 44.2487 28.9771 44.2487C32.2968 44.2487 35.3615 43.1508 37.8278 41.2984C38.036 41.5768 38.2649 41.8396 38.5121 42.0867C39.8467 43.424 41.6913 44.2487 43.7284 44.2487V14.7487Z" fill="#FF8E0A"/>
</svg>
