<svg width="24" height="24" viewBox="0 0 24 24" fill="none" xmlns="http://www.w3.org/2000/svg">
<path d="M22.0865 10.031C22.2177 10.7339 22.2891 11.4688 22.2891 12.2357C22.2891 18.2345 18.2743 22.5 12.2104 22.5C10.8314 22.5004 9.46588 22.2291 8.19177 21.7016C6.91767 21.1741 5.75999 20.4007 4.78489 19.4256C3.80979 18.4505 3.03638 17.2928 2.50886 16.0187C1.98133 14.7446 1.71003 13.379 1.71045 12C1.71003 10.621 1.98133 9.25543 2.50886 7.98133C3.03638 6.70722 3.80979 5.54954 4.78489 4.57444C5.75999 3.59934 6.91767 2.82593 8.19177 2.29841C9.46588 1.77088 10.8314 1.49958 12.2104 1.5C15.0456 1.5 17.4146 2.54317 19.2321 4.237L16.2722 7.19692V7.18946C15.1704 6.13988 13.772 5.60123 12.2104 5.60123C8.746 5.60123 5.93008 8.52809 5.93008 11.9936C5.93008 15.458 8.746 18.3913 12.2104 18.3913C15.3538 18.3913 17.4935 16.594 17.933 14.1258H12.2104V10.031H22.0875H22.0865Z" fill="#26262E"/>
</svg>
